# File created by Blade
# Date/Time:  Wed Apr 08 16:19:59 2015
# Frame Rate: 120.000 fps
#------------------------------------------------------
:FULLY-SPECIFIED
:DEGREES
1246
root -22.078459 27.290183 -0.237997 350.377075 -81.222256 -409.423378
Spine -71.388354 -12.427111 7.268860
Head -88.150295 7.143534 13.854630
LeftShoulder -19.578586 10.796861 46.095459
LeftArm 169.932561 -61.482614 -172.728860
LeftForeArm -31.946951 -0.000000 56.196342
LeftHand 21.320404 -0.000000 73.693795
LeftHandThumb1 -26.253704 0.000000 33.147579
RightShoulder -31.760501 49.810463 -58.909041
RightArm 53.647488 61.701746 28.660764
RightForeArm 37.115316 -0.000000 6.617357
RightHand 19.288782 -0.000000 -108.835455
RightHandThumb1 -24.326973 -0.000000 -32.862282
LeftUpLeg 4.582748 -3.527349 14.389812
LeftLeg 55.183881 -0.000000 -0.000000
LeftFoot -6.145455 -23.286078 -35.629792
LeftToeBase -5.123243 -0.000000 0.000000
RightUpLeg 6.076363 -8.040900 -5.384737
RightLeg 57.835746 -0.000000 -0.000000
RightFoot -10.900222 -1.033499 6.187880
RightToeBase -34.338301 -0.000000 0.000000
1247
root -22.114137 27.294902 -0.296475 349.534286 -81.354262 -408.589391
Spine -71.449348 -12.465651 7.248088
Head -88.138950 7.231865 13.984129
LeftShoulder -19.468628 11.065863 45.483744
LeftArm 169.729622 -61.110076 -173.541186
LeftForeArm -32.628412 0.000000 57.992362
LeftHand 21.298429 -0.000000 71.699294
LeftHandThumb1 -26.253704 0.000000 33.147579
RightShoulder -31.700597 49.857718 -58.820598
RightArm 54.059216 61.636482 29.226133
RightForeArm 36.865492 -0.000000 6.658034
RightHand 19.203629 -0.000000 -108.996195
RightHandThumb1 -24.326973 -0.000000 -32.862282
LeftUpLeg 4.688932 -3.521204 14.352558
LeftLeg 55.125196 -0.000000 -0.000000
LeftFoot -6.010466 -23.244492 -35.536493
LeftToeBase -5.799951 -0.000000 0.000000
RightUpLeg 6.117216 -8.076379 -5.429983
RightLeg 57.882747 -0.000000 -0.000000
RightFoot -10.998436 -1.316649 5.946920
RightToeBase -34.670878 -0.000000 0.000000
1248
root -22.144732 27.300822 -0.354461 348.615643 -81.455092 -407.636948
Spine -71.545809 -12.529396 7.161381
Head -88.116323 7.304394 14.125222
LeftShoulder -19.385638 11.157064 44.873782
LeftArm 169.596810 -60.931893 -174.112135
LeftForeArm -33.133843 -0.000000 59.443288
LeftHand 21.189234 -0.000000 70.810089
LeftHandThumb1 -26.253704 0.000000 33.147579
RightShoulder -32.086831 49.765827 -59.259256
RightArm 55.529041 62.001359 31.980396
RightForeArm 35.384490 0.000000 7.720486
RightHand 18.836752 -0.000000 -109.242730
RightHandThumb1 -24.326973 -0.000000 -32.862282
LeftUpLeg 4.741741 -3.527515 14.308933
LeftLeg 55.034251 -0.000000 -0.000000
LeftFoot -5.827301 -23.163656 -35.611808
LeftToeBase -6.000400 -0.000000 0.000000
RightUpLeg 6.131896 -8.118706 -5.480974
RightLeg 57.905105 -0.000000 -0.000000
RightFoot -11.161251 -1.602901 5.705050
RightToeBase -34.796262 -0.000000 0.000000
1249
root -22.171426 27.306173 -0.412415 347.762329 -81.578090 -406.738013
Spine -71.630205 -12.572865 7.054784
Head -88.111102 7.338553 14.292859
LeftShoulder -19.401274 11.224236 44.261283
LeftArm 169.394656 -60.662352 -174.418200
LeftForeArm -33.581561 -0.000000 60.661290
LeftHand 21.320912 0.000000 71.344499
LeftHandThumb1 -26.253704 0.000000 33.147579
RightShoulder -32.760480 49.593041 -60.002747
RightArm 57.571108 62.518092 35.936822
RightForeArm 33.292371 -0.000000 9.389841
RightHand 18.210774 0.000000 -109.433670
RightHandThumb1 -24.326973 -0.000000 -32.862282
LeftUpLeg 4.790442 -3.498666 14.294327
LeftLeg 54.925952 -0.000000 -0.000000
LeftFoot -5.586767 -23.109481 -35.735677
LeftToeBase -6.360980 -0.000000 0.000000
RightUpLeg 6.126824 -8.130584 -5.510358
RightLeg 57.924158 -0.000000 -0.000000
RightFoot -11.247415 -1.757206 5.717210
RightToeBase -35.086295 -0.000000 0.000000
